<svg xmlns="http://www.w3.org/2000/svg" width="13" height="25.218" viewBox="0 0 13 25.218">
  <path id="Icon_ionic-ios-attach" data-name="Icon ionic-ios-attach" d="M22,9.515a.879.879,0,0,0-.878.878v10.94a4.538,4.538,0,0,1-1.238,3.1,4.454,4.454,0,0,1-3.123,1.334h-.765a4.374,4.374,0,0,1-3.084-1.384,4.518,4.518,0,0,1-1.345-3.106V7.163a3.058,3.058,0,0,1,.974-2.223,3.348,3.348,0,0,1,2.307-.917,3.132,3.132,0,0,1,3.163,3.14v13.18a1.779,1.779,0,0,1-1.632,1.812,1.73,1.73,0,0,1-1.587-1.812V12.824a.878.878,0,1,0-1.756,0v7.519a3.376,3.376,0,0,0,5.746,2.532,3.555,3.555,0,0,0,.985-2.532V7.163A4.919,4.919,0,0,0,14.83,2.25a4.939,4.939,0,0,0-3.5,1.435A4.855,4.855,0,0,0,9.872,7.169V21.283a6.289,6.289,0,0,0,1.835,4.39,6.083,6.083,0,0,0,4.283,1.8h.765a6.147,6.147,0,0,0,4.271-1.806,6.322,6.322,0,0,0,1.345-1.947,5.892,5.892,0,0,0,.5-2.369V10.393A.871.871,0,0,0,22,9.515Z" transform="translate(-9.872 -2.25)" fill="#4ba263"/>
</svg>
