<svg xmlns="http://www.w3.org/2000/svg" width="23" height="26.286" viewBox="0 0 23 26.286">
  <path id="Icon_awesome-bell" data-name="Icon awesome-bell" d="M11.5,26.286A3.285,3.285,0,0,0,14.784,23H8.216A3.285,3.285,0,0,0,11.5,26.286ZM22.558,18.6c-.992-1.066-2.848-2.669-2.848-7.921a8.107,8.107,0,0,0-6.568-7.966V1.643a1.642,1.642,0,1,0-3.284,0v1.07A8.107,8.107,0,0,0,3.29,10.679c0,5.252-1.856,6.855-2.848,7.921A1.6,1.6,0,0,0,0,19.714a1.644,1.644,0,0,0,1.648,1.643h19.7A1.644,1.644,0,0,0,23,19.714a1.6,1.6,0,0,0-.442-1.115Z" transform="translate(0)" fill="#fff"/>
</svg>
