<svg xmlns="http://www.w3.org/2000/svg" width="23" height="22.998" viewBox="0 0 23 22.998">
  <path id="Icon_ionic-ios-call" data-name="Icon ionic-ios-call" d="M26.826,22.511a19.318,19.318,0,0,0-4.036-2.7c-1.209-.581-1.653-.569-2.509.048-.713.515-1.174.994-1.994.814s-2.437-1.4-4.006-2.964-2.79-3.185-2.964-4.006.305-1.281.814-1.994c.617-.856.635-1.3.048-2.509a18.937,18.937,0,0,0-2.7-4.036C8.6,4.285,8.4,4.476,7.917,4.65a8.893,8.893,0,0,0-1.431.76A4.317,4.317,0,0,0,4.768,7.225c-.341.736-.736,2.108,1.275,5.688a31.739,31.739,0,0,0,5.58,7.442h0l.006.006.006.006h0a31.863,31.863,0,0,0,7.442,5.58c3.58,2.012,4.952,1.617,5.688,1.275A4.243,4.243,0,0,0,26.58,25.5a8.893,8.893,0,0,0,.76-1.431C27.514,23.588,27.712,23.391,26.826,22.511Z" transform="translate(-4.49 -4.502)" fill="#fff"/>
</svg>
