<svg height="29.75" viewBox="0 0 34 29.75" width="34" xmlns="http://www.w3.org/2000/svg"><path d="m30.813 32h-27.625a3.187 3.187 0 0 1 -3.188-3.187v-23.375a3.187 3.187 0 0 1 3.188-3.188h27.625a3.187 3.187 0 0 1 3.187 3.188v23.375a3.187 3.187 0 0 1 -3.187 3.187zm-22.313-23.906a2.656 2.656 0 1 0 2.656 2.656 2.656 2.656 0 0 0 -2.656-2.656zm0 6.375a2.656 2.656 0 1 0 2.656 2.656 2.656 2.656 0 0 0 -2.656-2.656zm0 6.375a2.656 2.656 0 1 0 2.656 2.656 2.656 2.656 0 0 0 -2.656-2.656zm19.125-9.031v-2.125a.8.8 0 0 0 -.8-.8h-13.278a.8.8 0 0 0 -.8.8v2.125a.8.8 0 0 0 .8.8h13.281a.8.8 0 0 0 .797-.8zm0 6.375v-2.125a.8.8 0 0 0 -.8-.8h-13.278a.8.8 0 0 0 -.8.8v2.125a.8.8 0 0 0 .8.8h13.281a.8.8 0 0 0 .797-.8zm0 6.375v-2.125a.8.8 0 0 0 -.8-.8h-13.278a.8.8 0 0 0 -.8.8v2.125a.8.8 0 0 0 .8.8h13.281a.8.8 0 0 0 .797-.8z" fill="#4caf50" transform="translate(0 -2.25)"/></svg>