<svg xmlns="http://www.w3.org/2000/svg" width="14" height="20.364" viewBox="0 0 14 20.364">
  <path id="Icon_awesome-microphone" data-name="Icon awesome-microphone" d="M7,14a3.818,3.818,0,0,0,3.818-3.818V3.818a3.818,3.818,0,1,0-7.636,0v6.364A3.818,3.818,0,0,0,7,14Zm6.364-6.364h-.636a.636.636,0,0,0-.636.636v1.909a5.1,5.1,0,0,1-5.6,5.066A5.246,5.246,0,0,1,1.909,9.955V8.273a.636.636,0,0,0-.636-.636H.636A.636.636,0,0,0,0,8.273v1.6A7.219,7.219,0,0,0,6.045,17.1v1.358H3.818a.636.636,0,0,0-.636.636v.636a.636.636,0,0,0,.636.636h6.364a.636.636,0,0,0,.636-.636v-.636a.636.636,0,0,0-.636-.636H7.955V17.111A7.007,7.007,0,0,0,14,10.182V8.273A.636.636,0,0,0,13.364,7.636Z" fill="#4ba263"/>
</svg>
