<svg xmlns="http://www.w3.org/2000/svg" width="22" height="22.006" viewBox="0 0 22 22.006">
  <path id="Icon_ionic-ios-settings" data-name="Icon ionic-ios-settings" d="M24.684,15.5A2.831,2.831,0,0,1,26.5,12.859a11.221,11.221,0,0,0-1.358-3.271,2.869,2.869,0,0,1-1.152.246,2.825,2.825,0,0,1-2.584-3.976A11.187,11.187,0,0,0,18.141,4.5a2.829,2.829,0,0,1-5.282,0A11.221,11.221,0,0,0,9.587,5.858,2.825,2.825,0,0,1,7,9.834a2.776,2.776,0,0,1-1.152-.246A11.469,11.469,0,0,0,4.5,12.865a2.83,2.83,0,0,1,.006,5.282,11.221,11.221,0,0,0,1.358,3.271,2.826,2.826,0,0,1,3.73,3.73,11.287,11.287,0,0,0,3.271,1.358,2.823,2.823,0,0,1,5.271,0,11.221,11.221,0,0,0,3.271-1.358,2.829,2.829,0,0,1,3.73-3.73,11.287,11.287,0,0,0,1.358-3.271A2.844,2.844,0,0,1,24.684,15.5Zm-9.132,4.578a4.583,4.583,0,1,1,4.583-4.583A4.582,4.582,0,0,1,15.552,20.078Z" transform="translate(-4.5 -4.5)" fill="#0e5d24"/>
</svg>
